<mxfile host="app.diagrams.net" modified="2023-07-09T21:32:21.594Z" agent="Mozilla/5.0 (X11; Linux x86_64; rv:109.0) Gecko/20100101 Firefox/115.0" etag="cd7qIo0hi_rYzUxZT2iB" version="21.6.1" type="github">
  <diagram name="Page-1" id="FIYfTx8UvyisVVqZUL03">
    <mxGraphModel dx="1434" dy="790" grid="1" gridSize="10" guides="1" tooltips="1" connect="1" arrows="1" fold="1" page="1" pageScale="1" pageWidth="827" pageHeight="1169" math="0" shadow="0">
      <root>
        <mxCell id="0" />
        <mxCell id="1" parent="0" />
        <mxCell id="RwOfegHBuOh5YempNNlM-1" value="" style="endArrow=classic;html=1;rounded=0;" edge="1" parent="1">
          <mxGeometry width="50" height="50" relative="1" as="geometry">
            <mxPoint x="20" y="550" as="sourcePoint" />
            <mxPoint x="810" y="550" as="targetPoint" />
          </mxGeometry>
        </mxCell>
        <mxCell id="RwOfegHBuOh5YempNNlM-2" value="2018" style="text;strokeColor=none;align=center;fillColor=none;html=1;verticalAlign=middle;whiteSpace=wrap;rounded=0;" vertex="1" parent="1">
          <mxGeometry x="40" y="520" width="60" height="30" as="geometry" />
        </mxCell>
        <mxCell id="RwOfegHBuOh5YempNNlM-3" value="2 students discover the vulnerability" style="text;strokeColor=none;align=center;fillColor=none;html=1;verticalAlign=middle;whiteSpace=wrap;rounded=0;" vertex="1" parent="1">
          <mxGeometry x="10" y="560" width="120" height="30" as="geometry" />
        </mxCell>
        <mxCell id="RwOfegHBuOh5YempNNlM-4" value="October 2022" style="text;strokeColor=none;align=center;fillColor=none;html=1;verticalAlign=middle;whiteSpace=wrap;rounded=0;" vertex="1" parent="1">
          <mxGeometry x="205" y="520" width="100" height="30" as="geometry" />
        </mxCell>
        <mxCell id="RwOfegHBuOh5YempNNlM-5" value="I reverse the application, run tests and exploit the vulnerability with a fake Izly application." style="text;strokeColor=none;align=center;fillColor=none;html=1;verticalAlign=middle;whiteSpace=wrap;rounded=0;" vertex="1" parent="1">
          <mxGeometry x="165" y="565" width="180" height="20" as="geometry" />
        </mxCell>
        <mxCell id="RwOfegHBuOh5YempNNlM-6" value="October 26, 2022" style="text;strokeColor=none;align=center;fillColor=none;html=1;verticalAlign=middle;whiteSpace=wrap;rounded=0;" vertex="1" parent="1">
          <mxGeometry x="380" y="520" width="110" height="30" as="geometry" />
        </mxCell>
        <mxCell id="RwOfegHBuOh5YempNNlM-7" value="I contact Izly" style="text;strokeColor=none;align=center;fillColor=none;html=1;verticalAlign=middle;whiteSpace=wrap;rounded=0;" vertex="1" parent="1">
          <mxGeometry x="397.5" y="560" width="75" height="30" as="geometry" />
        </mxCell>
        <mxCell id="RwOfegHBuOh5YempNNlM-8" value="December 1, 2022" style="text;strokeColor=none;align=center;fillColor=none;html=1;verticalAlign=middle;whiteSpace=wrap;rounded=0;" vertex="1" parent="1">
          <mxGeometry x="530" y="520" width="110" height="30" as="geometry" />
        </mxCell>
        <mxCell id="RwOfegHBuOh5YempNNlM-9" value="I contact the ANSSI" style="text;strokeColor=none;align=center;fillColor=none;html=1;verticalAlign=middle;whiteSpace=wrap;rounded=0;" vertex="1" parent="1">
          <mxGeometry x="530" y="560" width="110" height="30" as="geometry" />
        </mxCell>
        <mxCell id="RwOfegHBuOh5YempNNlM-10" value="April 15th - 26th 2023" style="text;strokeColor=none;align=center;fillColor=none;html=1;verticalAlign=middle;whiteSpace=wrap;rounded=0;" vertex="1" parent="1">
          <mxGeometry x="670" y="520" width="120" height="30" as="geometry" />
        </mxCell>
        <mxCell id="RwOfegHBuOh5YempNNlM-11" value="Vulnerability parched" style="text;strokeColor=none;align=center;fillColor=none;html=1;verticalAlign=middle;whiteSpace=wrap;rounded=0;" vertex="1" parent="1">
          <mxGeometry x="690" y="560" width="80" height="30" as="geometry" />
        </mxCell>
      </root>
    </mxGraphModel>
  </diagram>
</mxfile>
